<svg width="867" height="444" viewBox="0 0 867 444" fill="none" xmlns="http://www.w3.org/2000/svg">
<path d="M711.466 396.386H175.418C170.436 396.386 166.383 392.333 166.383 387.352C166.383 382.37 170.436 378.317 175.418 378.317H711.466C716.447 378.317 720.5 382.37 720.5 387.352C720.5 392.333 716.447 396.386 711.466 396.386Z" fill="#EFEAE6"/>
<path d="M592.511 443.064H294.372C289.39 443.064 285.338 439.012 285.338 434.03C285.338 429.048 289.39 424.995 294.372 424.995H592.511C597.493 424.995 601.546 429.048 601.546 434.03C601.546 439.012 597.493 443.064 592.511 443.064Z" fill="#EFEAE6"/>
<path d="M235.069 81.2748L268.853 67.057L283.343 96.7625L247.842 111.253L235.069 81.2748Z" fill="#FFB6B6"/>
<path opacity="0.1" d="M235.069 81.2748L268.853 67.057L283.343 96.7625L247.842 111.253L235.069 81.2748Z" fill="black"/>
<path d="M239.872 69.9551L273.2 108.355C273.2 108.355 250.015 181.532 226.831 188.052C203.646 194.573 160.899 226.452 160.899 226.452L107.284 191.675L133.367 153.275C133.367 153.275 196.401 67.057 213.065 67.057C229.729 67.057 239.872 69.9551 239.872 69.9551V69.9551Z" fill="#0B0E90"/>
<path d="M194.843 320.278H117.261L112.356 313.721L92.3302 286.95L87.7222 280.791C87.7222 280.791 70.3337 248.912 73.9563 219.931C77.5789 190.95 115.254 184.43 115.254 184.43H116.805L162.928 224.96L160.175 262.678L174.781 286.95L194.843 320.278Z" fill="#2F2E41"/>
<path d="M133.15 320.278H112.356V289.486L133.15 320.278Z" fill="#2F2E41"/>
<path d="M704.745 104.901L712.5 153.278L663.5 153.91V111.851L704.745 104.901Z" fill="#FFB6B6"/>
<path opacity="0.1" d="M704.745 104.901L712.5 153.278L663.5 153.91V111.851L704.745 104.901Z" fill="black"/>
<path d="M821.461 273.532L818.875 286.95L812.456 320.278H683.498C684.505 312.808 685.881 302.056 687.352 290.449C687.497 289.29 687.649 288.124 687.794 286.95C691.482 257.773 695.518 224.757 695.518 224.757L712.471 226.814L745.365 230.799L758.768 232.422L794.661 236.777C812.557 238.943 824.867 255.824 821.461 273.532Z" fill="#F2F2F2"/>
<path d="M581.644 273.532L579.058 286.95L572.638 320.278H443.681C444.688 312.808 446.064 302.056 447.535 290.449C447.68 289.29 447.832 288.124 447.977 286.95C451.665 257.773 455.7 224.757 455.7 224.757L472.654 226.814L505.547 230.799L518.951 232.422L554.844 236.777C572.74 238.943 585.049 255.824 581.644 273.532Z" fill="#F2F2F2"/>
<path d="M764.144 320.278H694.199C695.264 319.024 695.865 318.3 695.865 318.3L716.833 314.837L760.036 307.707C760.036 307.707 762.007 312.801 764.144 320.278V320.278Z" fill="#2F2E41"/>
<path d="M667.92 320.278H562.292C563.343 318.191 564.429 316.097 565.545 314.011C567.038 311.221 568.632 308.736 570.32 306.526C571.443 305.056 572.602 303.708 573.798 302.476C577.312 298.861 581.137 296.231 585.165 294.427C599.547 287.957 616.494 291.92 630.926 298.368C636.346 300.788 641.41 303.556 645.852 306.251C653.676 311.004 659.581 315.54 662.095 317.554C662.965 318.242 663.428 318.64 663.428 318.64L667.92 320.278V320.278Z" fill="#2F2E41"/>
<path d="M584.122 320.278H569.139L573.088 315.692L575.319 313.098L576.276 313.873L584.122 320.278Z" fill="#FFB6B6"/>
<path d="M769.259 320.278H640.236L645.852 306.251L653.568 286.95L657.444 277.256L654.241 263.627C654.241 263.627 652.662 262.512 650.256 260.505C641.685 253.404 622.609 235.117 626.992 216.338C631.977 194.964 638.237 153.312 639.563 144.335C639.729 143.212 639.816 142.603 639.816 142.603L658.436 138.039L659.052 137.886L661.052 137.394H710.928L747.611 162.238L747.604 162.498L745.365 230.799L744.408 260.019C744.408 260.019 743.256 264.236 743.532 270.786C743.713 275.278 744.561 280.864 746.908 286.95C749.393 293.42 753.574 300.448 760.435 307.309C765.615 312.489 768.129 316.851 769.259 320.278V320.278Z" fill="#0B0E90"/>
<path d="M758.768 232.422C757.544 242.464 756.37 249.601 756.37 249.601L743.532 270.786L733.736 286.95L716.833 314.837L714.355 318.93L712.587 320.278H659.559L662.095 317.554L687.352 290.449L690.62 286.95L695.916 281.262L712.471 226.814L731.983 162.643C731.983 162.643 739.887 159.89 747.604 162.498C751.661 163.868 755.675 166.722 758.435 172.258C763.717 182.821 761.145 213.034 758.768 232.422Z" fill="#0B0E90"/>
<path d="M665.486 230.669L650.256 260.505L636.759 286.95L630.926 298.368L628.63 302.875L608.944 320.278H564.372L571.718 311.149L574.45 307.744L585.165 294.427L591.179 286.95L607.502 266.649L611.856 174.186C612.578 158.851 624.263 146.453 639.471 144.35C639.504 144.345 639.534 144.34 639.563 144.335C644.504 143.342 652.358 143.052 658.436 148.928C658.647 149.124 658.849 149.334 659.052 149.551C660.074 150.631 661.038 151.899 661.921 153.384C662.008 153.529 662.095 153.681 662.175 153.833C662.429 154.297 662.675 154.804 662.9 155.347C670.659 173.417 665.486 230.669 665.486 230.669L665.486 230.669Z" fill="#0B0E90"/>
<path d="M467.455 95.7663L497.873 138.784L444.814 140.369L439.118 99.942L467.455 95.7663Z" fill="#A0616A"/>
<path opacity="0.1" d="M467.455 95.7663L497.873 138.784L444.814 140.369L439.118 99.942L467.455 95.7663Z" fill="black"/>
<path d="M317.446 184.896C313.543 173.637 304.57 166.525 297.405 169.01C290.24 171.495 287.597 182.635 291.503 193.898C293.002 198.418 295.561 202.514 298.967 205.842L316.107 253.339L338.224 244.821L318.979 198.902C319.594 194.178 319.068 189.375 317.446 184.896Z" fill="#A0616A"/>
<path d="M523.347 162.977L523.306 206.817L519.227 223.011L510.837 256.317L504.729 286.95L500.179 309.772L498.556 317.923C497.331 318.742 496.114 319.524 494.897 320.278H388.921C382.9 316.663 379.531 313.851 379.531 313.851C379.531 313.851 381.198 312.286 383.103 309.772C386.32 305.527 390.211 298.571 387.827 291.927C387.327 290.536 387.197 288.841 387.349 286.95C388.32 274.474 401.405 253.375 401.405 253.375L398.695 222.061L397.507 208.339L405.884 141.429L433.192 125.555L437.906 125.099L484.442 122.585L503.677 123.693L504.553 123.932L523.347 162.977L523.347 162.977Z" fill="#EFEAE6"/>
<path d="M525.414 320.278H502.229L501.208 309.772L501.186 309.562L507.75 309.113L524.827 307.947L525.124 314.235L525.356 319.061L525.414 320.278Z" fill="#FFB6B6"/>
<path d="M531.121 173.576L540.861 230.72L532.913 286.95L531.674 295.702L529.486 311.156L528.812 315.909L528.834 316.423L529 320.278H501.469L500.454 309.772L500.367 308.83L498.295 287.312L498.259 286.95L493.861 241.319L502.483 208.339L503.12 205.912V205.905L506.872 149.435L503.966 123.773L503.937 123.534C503.995 123.57 504.046 123.606 504.104 123.642C504.256 123.736 504.408 123.831 504.553 123.932C521.478 134.67 531.563 153.507 531.121 173.576Z" fill="#EFEAE6"/>
<path d="M415.748 152.379L405.16 141.428C405.16 141.428 382.496 151.646 381.366 157.314C380.236 162.983 340.22 246.24 340.22 246.24L322.81 199.741L300.148 214.871C300.148 214.871 318.332 287.063 335.338 290.452C352.344 293.842 409.339 205.006 409.339 205.006L415.748 152.379H415.748Z" fill="#EFEAE6"/>
<path d="M678.776 126.433C698.231 126.433 714.003 110.661 714.003 91.2058C714.003 71.7506 698.231 55.979 678.776 55.979C659.321 55.979 643.549 71.7506 643.549 91.2058C643.549 110.661 659.321 126.433 678.776 126.433Z" fill="#FFB6B6"/>
<path d="M693.383 105.055C693.383 105.055 689.731 94.9943 687.661 89.7735C685.59 84.5527 686.94 77.7777 686.94 77.7777C686.94 77.7777 659.307 71.6782 648.486 77.7238C637.665 83.7693 636.937 53.3613 647.92 45.0854C647.92 45.0854 650.861 50.1968 649.719 51.6663L648.578 53.1358C648.578 53.1358 656.889 35.5596 670.923 34.6797C670.923 34.6797 677.575 39.9872 675.068 41.7391C672.561 43.491 693.551 31.8356 697.202 41.8967C697.202 41.8967 710.586 44.2811 707.978 48.8523L708.197 52.0072C708.197 52.0072 720.327 50.7478 719.463 59.3433C719.463 59.3433 715.382 58.5301 712.773 60.2726C710.163 62.0151 718.981 70.2776 718.981 70.2776C718.981 70.2776 724.281 104.708 705.901 114.621C705.901 114.621 708.882 98.9522 701.867 101.514C694.851 104.075 693.383 105.055 693.383 105.055V105.055Z" fill="#2F2E41"/>
<path d="M845.641 328.778H21.1641C9.49414 328.778 0 319.284 0 307.614C0 295.944 9.49414 286.45 21.1641 286.45H845.641C857.311 286.45 866.805 295.944 866.805 307.614C866.805 319.284 857.311 328.778 845.641 328.778Z" fill="#EFEAE6"/>
<path d="M518.522 221.94L516.919 296.742C516.764 303.983 510.85 309.772 503.607 309.772H366.004C358.933 309.772 353.095 304.245 352.709 297.184L348.619 222.381C348.202 214.753 354.275 208.339 361.915 208.339H505.21C512.675 208.339 518.682 214.476 518.522 221.94Z" fill="#3F3D56"/>
<path d="M817.522 221.94L815.919 296.742C815.764 303.983 809.85 309.772 802.607 309.772H665.004C657.933 309.772 652.095 304.245 651.709 297.184L647.619 222.381C647.202 214.753 653.275 208.339 660.915 208.339H804.21C811.675 208.339 817.682 214.476 817.522 221.94Z" fill="#3F3D56"/>
<path d="M296.385 99.3313C314.567 99.3313 329.307 84.5917 329.307 66.4095C329.307 48.2273 314.567 33.4877 296.385 33.4877C278.203 33.4877 263.463 48.2273 263.463 66.4095C263.463 84.5917 278.203 99.3313 296.385 99.3313Z" fill="#FFB6B6"/>
<path d="M241.321 152.551L244.944 191.675L269.578 290.935L248.296 298.394L212.34 190.226L207.374 146.755L241.321 152.551Z" fill="#FFB6B6"/>
<path d="M231.522 221.94L229.919 296.742C229.764 303.983 223.85 309.772 216.607 309.772H79.0043C71.9328 309.772 66.0947 304.245 65.7087 297.184L61.6194 222.381C61.2024 214.753 67.2754 208.339 74.9149 208.339H218.21C225.675 208.339 231.682 214.476 231.522 221.94H231.522Z" fill="#3F3D56"/>
<path d="M273.5 310.278C287.859 310.278 299.5 305.129 299.5 298.778C299.5 292.427 287.859 287.278 273.5 287.278C259.141 287.278 247.5 292.427 247.5 298.778C247.5 305.129 259.141 310.278 273.5 310.278Z" fill="#FFB6B6"/>
<path d="M190.242 158.532L205.095 79.3739C205.095 79.3739 246.393 73.5777 247.842 87.3437C249.291 101.11 246.806 168.386 246.806 168.386L190.242 158.532V158.532Z" fill="#0B0E90"/>
<path d="M283.095 71.586C283.095 71.586 303.461 64.3176 312.051 60.4069C320.642 56.4961 337.708 83.7732 338.088 69.3673C338.467 54.9613 332.57 48.9201 332.57 48.9201C332.57 48.9201 331.098 17.405 299.347 21.3452C299.347 21.3452 306.331 5.57784 283.406 3.13971C260.482 0.701576 224.817 56.0607 228.011 64.3338C231.205 72.6069 235.034 79.4466 225.972 88.2924C216.91 97.1383 199.942 147.062 212.852 160.496C225.762 173.93 226.61 179.759 217.764 188.117C208.918 196.475 188.01 214.647 210.617 217.802C233.224 220.957 208.548 218.601 225.402 203.776C242.256 188.951 266.85 189.556 257.667 165.771C248.484 141.986 264.438 107.902 262.442 102.731C260.445 97.5605 266.914 64.7262 266.914 64.7262C266.914 64.7262 281.969 62.5144 283.095 71.586V71.586Z" fill="#2F2E41"/>
<path d="M451.191 111.337C470.984 111.337 487.029 95.2915 487.029 75.4988C487.029 55.7062 470.984 39.661 451.191 39.661C431.398 39.661 415.353 55.7062 415.353 75.4988C415.353 95.2915 431.398 111.337 451.191 111.337Z" fill="#A0616A"/>
<path d="M454.051 27.3174C453.014 27.9228 451.625 27.0069 451.293 25.8531C450.96 24.6993 451.347 23.4743 451.732 22.3366L453.665 16.6095C455.037 12.5476 456.492 8.34387 459.462 5.25229C463.945 0.586053 471.069 -0.601016 477.482 0.258974C485.718 1.36337 493.844 5.82302 497.674 13.1976C501.503 20.5723 499.873 30.8625 492.953 35.4635C502.815 46.7669 506.253 59.3641 505.71 74.355C505.167 89.346 488.831 103.143 478.177 113.703C475.798 112.261 473.635 105.502 474.944 103.047C476.252 100.592 474.377 97.747 475.998 95.4854C477.618 93.2238 478.974 96.8249 477.336 94.5762C476.302 93.1572 480.336 89.8926 478.8 89.0433C471.368 84.9354 468.896 75.6722 464.229 68.5787C458.599 60.0226 448.963 54.2283 438.766 53.267C433.149 52.7375 427.216 53.6966 422.612 56.9576C418.008 60.2187 415.027 66.0462 416.095 71.5863C413.33 68.7787 411.953 64.6643 412.473 60.7581C412.992 56.8518 415.395 53.2397 418.797 51.2518C416.729 44.4104 418.501 36.5407 423.303 31.2466C428.104 25.9525 447.583 26.8542 454.593 28.2475L454.051 27.3174Z" fill="#2F2E41"/>
<path d="M455.14 53.4747C464.425 54.477 471.129 62.5198 476.79 69.9473C480.052 74.2283 483.47 78.956 483.388 84.338C483.305 89.7794 479.667 94.4466 477.929 99.6034C475.087 108.032 477.856 118.061 484.622 123.836C477.937 125.105 470.71 120.093 469.556 113.387C468.213 105.581 474.13 98.047 473.43 90.1573C472.812 83.2063 467.334 77.8568 462.678 72.6595C458.021 67.4623 453.647 60.5658 455.79 53.9245L455.14 53.4747Z" fill="#2F2E41"/>
</svg>
