<svg width="25" height="25" viewBox="0 0 25 25" fill="none" xmlns="http://www.w3.org/2000/svg">
<path d="M12.2111 9.87268C11.4154 9.87268 10.6523 10.1888 10.0897 10.7514C9.52713 11.314 9.21106 12.077 9.21106 12.8727C9.21106 13.6683 9.52713 14.4314 10.0897 14.994C10.6523 15.5566 11.4154 15.8727 12.2111 15.8727C13.0067 15.8727 13.7698 15.5566 14.3324 14.994C14.895 14.4314 15.2111 13.6683 15.2111 12.8727C15.2111 12.077 14.895 11.314 14.3324 10.7514C13.7698 10.1888 13.0067 9.87268 12.2111 9.87268ZM12.2111 17.8727C10.885 17.8727 9.61321 17.3459 8.67553 16.4082C7.73784 15.4705 7.21106 14.1988 7.21106 12.8727C7.21106 11.5466 7.73784 10.2748 8.67553 9.33715C9.61321 8.39946 10.885 7.87268 12.2111 7.87268C13.5371 7.87268 14.8089 8.39946 15.7466 9.33715C16.6843 10.2748 17.2111 11.5466 17.2111 12.8727C17.2111 14.1988 16.6843 15.4705 15.7466 16.4082C14.8089 17.3459 13.5371 17.8727 12.2111 17.8727M12.2111 5.37268C7.21106 5.37268 2.94106 8.48268 1.21106 12.8727C2.94106 17.2627 7.21106 20.3727 12.2111 20.3727C17.2111 20.3727 21.4811 17.2627 23.2111 12.8727C21.4811 8.48268 17.2111 5.37268 12.2111 5.37268Z" fill="black"/>
</svg>
